<svg width="32" height="32" viewBox="0 0 32 32" fill="none" xmlns="http://www.w3.org/2000/svg">
<path fill-rule="evenodd" clip-rule="evenodd" d="M0.823796 5.63116H31.1762C31.6317 5.63116 32 6 32 6.45496V25.5456C32 26.0006 31.6317 26.3694 31.1762 26.3694H0.823796C0.368272 26.3694 0 26.0006 0 25.5456V6.45496C0 6 0.368272 5.63116 0.823796 5.63116ZM16 20.2215C16.9771 21.0644 18.2478 21.5758 19.6364 21.5758C22.7109 21.5758 25.2121 19.0745 25.2121 16C25.2121 12.9255 22.7109 10.4243 19.6364 10.4243C18.2478 10.4243 16.9771 10.9358 16 11.7785C15.0229 10.9357 13.7522 10.4243 12.3636 10.4243C9.28911 10.4243 6.78787 12.9255 6.78787 16C6.78787 19.0745 9.28911 21.5758 12.3636 21.5758C13.7522 21.5758 15.0229 21.0643 16 20.2215Z" fill="#F6F6FF" fill-opacity="0.47"/>
<path d="M19.6364 11.8788C18.6199 11.8788 17.6888 12.2494 16.9695 12.8617C17.581 13.7563 17.9394 14.8369 17.9394 16C17.9394 17.1631 17.581 18.2437 16.9695 19.1383C17.6888 19.7506 18.6199 20.1212 19.6364 20.1212C21.9089 20.1212 23.7576 18.2725 23.7576 16C23.7576 13.7275 21.9089 11.8788 19.6364 11.8788Z" fill="#F6F6FF" fill-opacity="0.47"/>
</svg>
