<svg width="22" height="22" viewBox="0 0 22 22" fill="none" xmlns="http://www.w3.org/2000/svg">
<path d="M11 0.689697C5.31489 0.689697 0.689697 5.31489 0.689697 11C0.689697 16.6851 5.31489 21.3103 11 21.3103C16.6851 21.3103 21.3103 16.6851 21.3103 11C21.3103 5.31489 16.6851 0.689697 11 0.689697ZM15.5807 13.2587C15.5807 14.6189 14.6938 15.7751 13.4682 16.1814V17.4714H11.8276V16.3377H10.8276V17.4714H9.18699V16.3377H7.81389V11.8203V10.1797V5.66227H9.18699V4.52854H10.8276V5.66227H11.8276V4.52854H13.4682V5.81856C14.6938 6.22495 15.5807 7.38115 15.5807 8.74128C15.5807 9.63307 15.1992 10.4371 14.5913 11C15.1992 11.5628 15.5807 12.3669 15.5807 13.2587Z" fill="#F6F6FF" fill-opacity="0.47"/>
</svg>
