<svg width="83" height="74" viewBox="0 0 83 74" fill="none" xmlns="http://www.w3.org/2000/svg">
<path d="M7.89528 47.5798L5.46663 48.5242C1.82366 50.0759 -0.0652895 51.695 0.002173 53.1117C0.20456 55.203 2.56575 56.7547 6.88335 57.9015C12.4827 59.3857 18.1496 59.723 24.0188 58.846V52.9768L19.3639 54.7308C14.5066 56.4174 12.0105 55.0006 12.0105 55.0006C11.2684 54.5284 10.9311 53.3815 12.955 52.6395L15.5185 51.695L24.0188 48.6592V41.8455L21.86 42.5875L7.89528 47.5798Z" fill="#818186"/>
<path d="M43.3804 23.9004V41.3732C47.0234 43.1272 50.2616 43.2621 52.6902 41.4407C55.1863 39.6866 56.5356 36.6508 56.5356 32.0634C56.5356 27.2735 55.5911 23.6306 53.4998 21.2019C51.6108 18.6383 48.2377 16.4795 43.2455 14.793C37.0389 12.7691 31.7769 11.0151 27.5942 10.1381V62.4215L38.8604 65.8621V22.4162C38.7929 19.7852 43.3804 19.9876 43.3804 23.9004Z" fill="#818186"/>
<path d="M71.9845 50.8854C71.917 49.0639 69.7582 47.6472 65.9129 46.3654C61.5953 44.9487 57.8848 44.2741 53.8371 44.409C50.1267 44.4765 45.6741 45.6908 41.6938 46.9726V53.6514L52.6228 49.806C52.6228 49.806 55.9284 48.5917 58.7619 49.3338C60.9207 49.8735 60.7857 51.0878 58.6269 51.8299L56.1308 52.8418L41.6938 58.0364V64.8501L48.4401 62.4215L64.6311 56.6872L66.52 55.8102C70.4329 54.3934 72.1869 52.8418 71.9845 50.8854Z" fill="#818186"/>
<g opacity="0.2">
<path d="M12.8953 42.5798L10.4666 43.5242C6.82366 45.0759 4.93471 46.695 5.00217 48.1117C5.20456 50.203 7.56575 51.7547 11.8833 52.9015C17.4827 54.3857 23.1496 54.723 29.0188 53.846V47.9768L24.3639 49.7308C19.5066 51.4174 17.0105 50.0006 17.0105 50.0006C16.2684 49.5284 15.9311 48.3815 17.955 47.6395L20.5185 46.695L29.0188 43.6592V36.8455L26.86 37.5875L12.8953 42.5798Z" fill="#818186"/>
<path d="M48.3804 18.9004V36.3732C52.0234 38.1272 55.2616 38.2621 57.6902 36.4407C60.1863 34.6866 61.5356 31.6508 61.5356 27.0634C61.5356 22.2735 60.5911 18.6306 58.4998 16.2019C56.6108 13.6383 53.2377 11.4795 48.2455 9.79297C42.0389 7.7691 36.7769 6.01507 32.5942 5.13806V57.4215L43.8604 60.8621V17.4162C43.7929 14.7852 48.3804 14.9876 48.3804 18.9004Z" fill="#818186"/>
<path d="M76.9845 45.8854C76.917 44.0639 74.7582 42.6472 70.9129 41.3654C66.5953 39.9487 62.8848 39.2741 58.8371 39.409C55.1267 39.4765 50.6741 40.6908 46.6938 41.9726V48.6514L57.6228 44.806C57.6228 44.806 60.9284 43.5917 63.7619 44.3338C65.9207 44.8735 65.7857 46.0878 63.6269 46.8299L61.1308 47.8418L46.6938 53.0364V59.8501L53.4401 57.4215L69.6311 51.6872L71.52 50.8102C75.4329 49.3934 77.1869 47.8418 76.9845 45.8854Z" fill="#818186"/>
</g>
<g opacity="0.1">
<path d="M18.8953 37.5798L16.4666 38.5242C12.8237 40.0759 10.9347 41.695 11.0022 43.1117C11.2046 45.203 13.5657 46.7547 17.8833 47.9015C23.4827 49.3857 29.1496 49.723 35.0188 48.846V42.9768L30.3639 44.7308C25.5066 46.4174 23.0105 45.0006 23.0105 45.0006C22.2684 44.5284 21.9311 43.3815 23.955 42.6395L26.5185 41.695L35.0188 38.6592V31.8455L32.86 32.5875L18.8953 37.5798Z" fill="#818186"/>
<path d="M54.3804 13.9004V31.3732C58.0234 33.1272 61.2616 33.2621 63.6902 31.4407C66.1863 29.6866 67.5356 26.6508 67.5356 22.0634C67.5356 17.2735 66.5911 13.6306 64.4998 11.2019C62.6108 8.63833 59.2377 6.47953 54.2455 4.79297C48.0389 2.7691 42.7769 1.01507 38.5942 0.138062V52.4215L49.8604 55.8621V12.4162C49.7929 9.7852 54.3804 9.98758 54.3804 13.9004Z" fill="#818186"/>
<path d="M82.9845 40.8854C82.917 39.0639 80.7582 37.6472 76.9129 36.3654C72.5953 34.9487 68.8848 34.2741 64.8371 34.409C61.1267 34.4765 56.6741 35.6908 52.6938 36.9726V43.6514L63.6228 39.806C63.6228 39.806 66.9284 38.5917 69.7619 39.3338C71.9207 39.8735 71.7857 41.0878 69.6269 41.8299L67.1308 42.8418L52.6938 48.0364V54.8501L59.4401 52.4215L75.6311 46.6872L77.52 45.8102C81.4329 44.3934 83.1869 42.8418 82.9845 40.8854Z" fill="#818186"/>
</g>
</svg>
