<svg width="32" height="32" viewBox="0 0 32 32" fill="none" xmlns="http://www.w3.org/2000/svg">
<path d="M31.1762 5.63116H0.823796C0.368272 5.63116 0 6 0 6.45496V25.5456C0 26.0006 0.368272 26.3694 0.823796 26.3694H31.1762C31.6317 26.3694 32 26.0006 32 25.5456V6.45496C32 6 31.6317 5.63116 31.1762 5.63116ZM2.47762 11.898H5.89292C6.35354 11.9156 6.72465 12.0623 6.85269 12.5547L7.59547 16.1269C6.86572 14.2584 5.10708 12.7037 2.44929 12.0601L2.47762 11.898ZM6.6102 20.0453L4.63739 13.3054C6.05552 14.213 7.26346 15.6533 7.68895 16.6555L7.91898 17.4878L10.0765 11.9756H12.4108L8.94164 20.0436L6.6102 20.0453ZM14.1263 20.051H11.9235L13.3008 11.9671H15.5048L14.1263 20.051ZM17.9598 20.1722C16.9722 20.162 16.021 19.9666 15.5054 19.7405L15.8153 17.9314L16.0992 18.0601C16.8227 18.362 17.2912 18.4844 18.1734 18.4844C18.8062 18.4844 19.4844 18.2368 19.4907 17.6952C19.4946 17.3411 19.2068 17.0884 18.349 16.6918C17.5127 16.3054 16.4057 15.6572 16.4193 14.4963C16.4312 12.9252 17.9654 11.8289 20.1428 11.8289C20.996 11.8289 21.6799 12.0045 22.1161 12.1683L21.8187 13.9207L21.6198 13.8272C21.2142 13.664 20.6924 13.5065 19.9711 13.5178C19.1088 13.5178 18.7088 13.8771 18.7088 14.213C18.7043 14.5915 19.1756 14.8408 19.9462 15.2159C21.217 15.7926 21.8045 16.4924 21.7966 17.4119C21.7796 19.089 20.2765 20.1722 17.9598 20.1722ZM27.5065 20.0544C27.5065 20.0544 27.3054 19.1252 27.2385 18.8431C26.9178 18.8431 24.6697 18.8397 24.417 18.8397C24.3314 19.0578 23.9541 20.0544 23.9541 20.0544H21.6408L24.9116 12.6465C25.1439 12.1201 25.5377 11.9756 26.0657 11.9756H27.7677L29.5507 20.0538L27.5065 20.0544Z" fill="#F6F6FF" fill-opacity="0.47"/>
<path d="M26.3694 14.8527L26.221 14.1558C26.1088 14.4601 25.9156 14.949 25.928 14.9275C25.928 14.9275 25.2317 16.7218 25.0504 17.187H26.8799C26.7915 16.7819 26.3694 14.8527 26.3694 14.8527Z" fill="#F6F6FF" fill-opacity="0.47"/>
</svg>
