<svg width="72" height="79" viewBox="0 0 72 79" fill="none" xmlns="http://www.w3.org/2000/svg">
<path d="M33.3143 10.2827C30.7487 10.6033 27.447 11.3729 25.3651 12.1852C23.0518 13.0617 20.2128 14.4726 20.2128 14.7505C20.2128 14.9215 20.7175 15.0711 21.5377 15.1566C24.4818 15.4986 29.9495 17.8287 34.8915 20.8001C36.0902 21.5269 37.2679 22.1255 37.4782 22.1255C37.7095 22.1255 38.8661 21.5269 40.0438 20.8001C42.8618 19.0686 47.5093 16.7812 49.6544 16.0544C50.6217 15.7338 52.1359 15.3704 53.0402 15.2207C54.1337 15.0711 54.7015 14.8787 54.7015 14.7077C54.7015 14.0878 49.8016 11.9715 46.3948 11.1164C41.9154 9.98342 37.7936 9.7269 33.3143 10.2827Z" fill="#818186"/>
<path d="M12.9786 20.2443C7.36365 26.0588 4.31435 32.365 3.28389 40.4454C2.80021 44.2077 2.92639 47.4142 3.72551 51.5186C4.50361 55.4733 6.29114 59.9197 8.39411 63.0621C9.78207 65.157 10.0134 65.1356 10.1816 62.8911C10.8336 54.4686 17.2686 42.9037 27.9728 31.0182C28.8981 29.9707 29.6762 28.9874 29.6762 28.8592C29.6762 28.5599 26.4796 25.3961 24.1243 23.3439C20.9699 20.6077 16.8691 18.0639 15.6704 18.0639C15.2077 18.0639 14.6189 18.5555 12.9786 20.2443Z" fill="#818186"/>
<path d="M57.7088 18.6838C55.038 19.9878 51.4419 22.724 47.972 26.1229C46.584 27.4697 45.4484 28.7309 45.4484 28.9019C45.4484 29.0729 46.4789 30.3769 47.7407 31.8092C56.8255 42.0914 62.5876 51.9034 64.3752 60.1121C64.6065 61.1595 64.7958 62.5918 64.7958 63.3186C64.7958 64.5157 64.8378 64.6653 65.1953 64.6653C65.679 64.6653 67.5927 61.6726 68.7914 59.0005C71.2309 53.6776 72.0931 49.2526 71.8828 43.1389C71.6725 36.0631 69.7798 30.27 65.8893 24.712C64.1018 22.1468 60.1692 18.0639 59.4963 18.0639C59.2229 18.0639 58.4238 18.3418 57.7088 18.6838Z" fill="#818186"/>
<path d="M35.1439 37.5595C30.1598 41.9631 23.5775 48.8892 19.8343 53.699C15.8596 58.7867 11.5906 65.6701 11.5906 66.9527C11.5906 67.3588 13.7987 69.6461 15.7966 71.3349C22.8205 77.2349 33.0199 79.9712 42.6094 78.5389C50.0119 77.4273 56.7414 74.007 62.3353 68.5345C63.1975 67.7008 63.3237 67.4657 63.3237 66.6961C63.3026 62.7628 55.7109 53.015 43.1562 40.8088C39.7494 37.4954 37.8567 35.8066 37.5623 35.8066C37.3099 35.8066 36.2795 36.5548 35.1439 37.5595Z" fill="#818186"/>
<g opacity="0.2">
<path d="M33.3143 5.28269C30.7487 5.60335 27.447 6.37291 25.3651 7.18523C23.0518 8.06168 20.2128 9.47255 20.2128 9.75045C20.2128 9.92147 20.7175 10.0711 21.5377 10.1566C24.4818 10.4986 29.9495 12.8287 34.8915 15.8001C36.0902 16.5269 37.2679 17.1255 37.4782 17.1255C37.7095 17.1255 38.8661 16.5269 40.0438 15.8001C42.8618 14.0686 47.5093 11.7812 49.6544 11.0544C50.6217 10.7338 52.1359 10.3704 53.0402 10.2207C54.1337 10.0711 54.7015 9.87871 54.7015 9.7077C54.7015 9.08777 49.8016 6.97146 46.3948 6.11639C41.9154 4.98342 37.7936 4.7269 33.3143 5.28269Z" fill="#818186"/>
<path d="M12.9786 15.2443C7.36365 21.0588 4.31435 27.365 3.28389 35.4454C2.80021 39.2077 2.92639 42.4142 3.72551 46.5186C4.50361 50.4733 6.29114 54.9197 8.39411 58.0621C9.78207 60.157 10.0134 60.1356 10.1816 57.8911C10.8336 49.4686 17.2686 37.9037 27.9728 26.0182C28.8981 24.9707 29.6762 23.9874 29.6762 23.8592C29.6762 23.5599 26.4796 20.3961 24.1243 18.3439C20.9699 15.6077 16.8691 13.0639 15.6704 13.0639C15.2077 13.0639 14.6189 13.5555 12.9786 15.2443Z" fill="#818186"/>
<path d="M57.7088 13.6838C55.038 14.9878 51.4419 17.724 47.972 21.1229C46.584 22.4697 45.4484 23.7309 45.4484 23.9019C45.4484 24.0729 46.4789 25.3769 47.7407 26.8092C56.8255 37.0914 62.5876 46.9034 64.3752 55.1121C64.6065 56.1595 64.7958 57.5918 64.7958 58.3186C64.7958 59.5157 64.8378 59.6653 65.1953 59.6653C65.679 59.6653 67.5927 56.6726 68.7914 54.0005C71.2309 48.6776 72.0931 44.2526 71.8828 38.1389C71.6725 31.0631 69.7798 25.27 65.8893 19.712C64.1018 17.1468 60.1692 13.0639 59.4963 13.0639C59.2229 13.0639 58.4238 13.3418 57.7088 13.6838Z" fill="#818186"/>
<path d="M35.1439 32.5595C30.1598 36.9631 23.5775 43.8892 19.8343 48.699C15.8596 53.7867 11.5906 60.6701 11.5906 61.9527C11.5906 62.3588 13.7987 64.6461 15.7966 66.3349C22.8205 72.2349 33.0199 74.9712 42.6094 73.5389C50.0119 72.4273 56.7414 69.007 62.3353 63.5345C63.1975 62.7008 63.3237 62.4657 63.3237 61.6961C63.3026 57.7628 55.7109 48.015 43.1562 35.8088C39.7494 32.4954 37.8567 30.8066 37.5623 30.8066C37.3099 30.8066 36.2795 31.5548 35.1439 32.5595Z" fill="#818186"/>
</g>
<g opacity="0.1">
<path d="M33.3143 0.282695C30.7487 0.603347 27.447 1.37291 25.3651 2.18523C23.0518 3.06168 20.2128 4.47255 20.2128 4.75045C20.2128 4.92147 20.7175 5.0711 21.5377 5.15661C24.4818 5.49864 29.9495 7.82871 34.8915 10.8001C36.0902 11.5269 37.2679 12.1255 37.4782 12.1255C37.7095 12.1255 38.8661 11.5269 40.0438 10.8001C42.8618 9.06857 47.5093 6.78125 49.6544 6.05444C50.6217 5.73379 52.1359 5.37038 53.0402 5.22074C54.1337 5.0711 54.7015 4.87871 54.7015 4.7077C54.7015 4.08777 49.8016 1.97146 46.3948 1.11639C41.9154 -0.0165806 37.7936 -0.273103 33.3143 0.282695Z" fill="#818186"/>
<path d="M12.9786 10.2443C7.36365 16.0588 4.31435 22.365 3.28389 30.4454C2.80021 34.2077 2.92639 37.4142 3.72551 41.5186C4.50361 45.4733 6.29114 49.9197 8.39411 53.0621C9.78207 55.157 10.0134 55.1356 10.1816 52.8911C10.8336 44.4686 17.2686 32.9037 27.9728 21.0182C28.8981 19.9707 29.6762 18.9874 29.6762 18.8592C29.6762 18.5599 26.4796 15.3961 24.1243 13.3439C20.9699 10.6077 16.8691 8.06386 15.6704 8.06386C15.2077 8.06386 14.6189 8.55552 12.9786 10.2443Z" fill="#818186"/>
<path d="M57.7088 8.68378C55.038 9.98777 51.4419 12.724 47.972 16.1229C46.584 17.4697 45.4484 18.7309 45.4484 18.9019C45.4484 19.0729 46.4789 20.3769 47.7407 21.8092C56.8255 32.0914 62.5876 41.9034 64.3752 50.1121C64.6065 51.1595 64.7958 52.5918 64.7958 53.3186C64.7958 54.5157 64.8378 54.6653 65.1953 54.6653C65.679 54.6653 67.5927 51.6726 68.7914 49.0005C71.2309 43.6776 72.0931 39.2526 71.8828 33.1389C71.6725 26.0631 69.7798 20.27 65.8893 14.712C64.1018 12.1468 60.1692 8.06385 59.4963 8.06385C59.2229 8.06385 58.4238 8.34175 57.7088 8.68378Z" fill="#818186"/>
<path d="M35.1439 27.5595C30.1598 31.9631 23.5775 38.8892 19.8343 43.699C15.8596 48.7867 11.5906 55.6701 11.5906 56.9527C11.5906 57.3588 13.7987 59.6461 15.7966 61.3349C22.8205 67.2349 33.0199 69.9712 42.6094 68.5389C50.0119 67.4273 56.7414 64.007 62.3353 58.5345C63.1975 57.7008 63.3237 57.4657 63.3237 56.6961C63.3026 52.7628 55.7109 43.015 43.1562 30.8088C39.7494 27.4954 37.8567 25.8066 37.5623 25.8066C37.3099 25.8066 36.2795 26.5548 35.1439 27.5595Z" fill="#818186"/>
</g>
</svg>
