<svg width="12" height="12" viewBox="0 0 12 12" fill="none" xmlns="http://www.w3.org/2000/svg">
<g clip-path="url(#clip0)">
<path d="M1.31618 7.59659L0.911401 7.754C0.304238 8.0126 -0.0105866 8.28245 0.000657171 8.51857C0.0343884 8.86713 0.42792 9.12573 1.14752 9.31687C2.08075 9.56424 3.02522 9.62045 4.00343 9.47429V8.49608L3.22761 8.78842C2.41806 9.06951 2.00204 8.83339 2.00204 8.83339C1.87836 8.75469 1.82214 8.56355 2.15946 8.43986L2.58672 8.28245L4.00343 7.77648V6.64087L3.64363 6.76455L1.31618 7.59659Z" fill="#818186"/>
<path d="M7.23004 3.65005V6.56218C7.8372 6.85451 8.3769 6.877 8.78167 6.57342C9.19769 6.28108 9.42257 5.77512 9.42257 5.01054C9.42257 4.21223 9.26515 3.60507 8.9166 3.2003C8.60177 2.77304 8.03959 2.41324 7.20755 2.13214C6.17312 1.79483 5.29611 1.50249 4.599 1.35632V10.0702L6.4767 10.6437V3.40268C6.46546 2.96418 7.23004 2.99791 7.23004 3.65005Z" fill="#818186"/>
<path d="M11.9974 8.14752C11.9862 7.84394 11.6264 7.60782 10.9855 7.39419C10.2659 7.15808 9.64748 7.04564 8.97285 7.06813C8.35444 7.07937 7.61236 7.28176 6.94897 7.49539V8.60852L8.77046 7.96762C8.77046 7.96762 9.32141 7.76524 9.79364 7.88892C10.1534 7.97887 10.131 8.18125 9.77116 8.30494L9.35514 8.47359L6.94897 9.33936V10.475L8.07335 10.0702L10.7719 9.11449L11.0867 8.96832C11.7388 8.7322 12.0312 8.47359 11.9974 8.14752Z" fill="#818186"/>
</g>
<defs>
<clipPath id="clip0">
<rect width="12" height="12" fill="white"/>
</clipPath>
</defs>
</svg>
